<svg height="512pt" viewBox="0 -86 512 512" width="512pt" xmlns="http://www.w3.org/2000/svg"><path d="m488.386719 182.328125c-11.535157-13.117187-26.363281-22.730469-42.78125-27.914063.925781-6.414062 1.394531-12.90625 1.394531-19.414062 0-74.4375-60.5625-135-135-135-48.738281 0-93.355469 26.277344-117.21875 67.996094-9.304688-2.65625-18.941406-3.996094-28.78125-3.996094-27.699219 0-53.828125 10.691406-73.582031 30.101562-17.074219 16.777344-27.726563 38.433594-30.613281 61.871094-36.890626 13.667969-61.804688 48.839844-61.804688 89.027344 0 52.382812 42.617188 95 95 95h322c52.382812 0 95-42.617188 95-95 0-23.089844-8.386719-45.347656-23.613281-62.671875zm-119.40625-13.007813c-4.59375 6.894532-13.910157 8.753907-20.800781 4.160157l-57.679688-38.453125v84.972656c0 .582031-.039062 1.15625-.105469 1.722656.0625 1.085938.105469 2.175782.105469 3.277344 0 30.328125-24.671875 55-55 55s-55-24.671875-55-55 24.671875-55 55-55c9 0 17.492188 2.1875 25 6.035156v-69.035156c0-5.53125 3.046875-10.613281 7.921875-13.226562 4.878906-2.609376 10.796875-2.324219 15.398437.746093l81 54c6.894532 4.59375 8.753907 13.910157 4.160157 20.800781zm0 0"/><path d="m235.5 200c-13.785156 0-25 11.214844-25 25s11.214844 25 25 25 25-11.214844 25-25-11.214844-25-25-25zm0 0"/></svg>