<svg id="Capa_1" enable-background="new 0 0 512 512" height="512" viewBox="0 0 512 512" width="512" xmlns="http://www.w3.org/2000/svg"><g><path d="m477 0h-442c-19.299 0-35 15.701-35 35v442c0 19.299 15.701 35 35 35h442c19.299 0 35-15.701 35-35 0-18.16 0-421.857 0-442 0-19.299-15.701-35-35-35zm-447 35c0-2.757 2.243-5 5-5h442c2.757 0 5 2.243 5 5v354.167h-452zm452 442c0 2.757-2.243 5-5 5h-442c-2.757 0-5-2.243-5-5v-57.833h452z"/><path d="m294.354 158.524h-23.354v-83.434c0-8.284-6.716-15-15-15s-15 6.716-15 15v83.435h-23.354c-8.284 0-15 6.716-15 15v59.997c0 8.284 6.716 15 15 15h23.354v95.059c0 8.284 6.716 15 15 15s15-6.716 15-15v-95.059h23.354c8.284 0 15-6.716 15-15v-59.997c0-8.285-6.716-15.001-15-15.001zm-15 59.997h-23.315c-.013 0-.026-.002-.039-.002s-.026.002-.039.002h-23.315v-29.997h46.708z"/><path d="m157.625 225.882h-23.355v-150.792c0-8.284-6.716-15-15-15s-15 6.716-15 15v150.792h-23.353c-8.284 0-15 6.716-15 15v59.997c0 8.284 6.716 15 15 15h23.353v27.701c0 8.284 6.716 15 15 15s15-6.716 15-15v-27.701h23.355c8.284 0 15-6.716 15-15v-59.997c0-8.284-6.716-15-15-15zm-15 59.997h-46.708v-29.997h46.708z"/><path d="m430.333 102.787h-23.353v-27.697c0-8.284-6.716-15-15-15s-15 6.716-15 15v27.697h-23.355c-8.284 0-15 6.716-15 15v59.997c0 8.284 6.716 15 15 15h23.355v150.796c0 8.284 6.716 15 15 15s15-6.716 15-15v-150.796h23.353c8.284 0 15-6.716 15-15v-59.997c0-8.284-6.716-15-15-15zm-15 59.997h-23.275c-.026 0-.051-.004-.077-.004s-.051.004-.077.004h-23.278v-29.997h23.297c.02 0 .038.003.058.003s.038-.003.058-.003h23.295v29.997z"/></g></svg>